
		<svg xmlns="http://www.w3.org/2000/svg" xmlns:xlink="http://www.w3.org/1999/xlink" version="1.1" width="3206.896551724138" height="1158.6206896551726">
			
			<g transform="scale(10.344827586206897) translate(10, 10)">
				<defs id="SvgjsDefs9797"><linearGradient id="SvgjsLinearGradient9802"><stop id="SvgjsStop9803" stop-color="#7f00ff" offset="0"></stop><stop id="SvgjsStop9804" stop-color="#e100ff" offset="1"></stop></linearGradient><linearGradient id="SvgjsLinearGradient9805"><stop id="SvgjsStop9806" stop-color="#7f00ff" offset="0"></stop><stop id="SvgjsStop9807" stop-color="#e100ff" offset="1"></stop></linearGradient></defs><g id="SvgjsG9798" featureKey="root" fill="#0b162a"></g><g id="SvgjsG9799" featureKey="symbol1" fill="url(#SvgjsLinearGradient9805)" transform="matrix(0.7,0,0,0.7,10,5.879799890518188)"><g id="SvgjsG9800"><polygon xmlns="http://www.w3.org/2000/svg" points="49.796,20.291 20.547,37.289 28.301,41.766 49.998,54.293 79.246,37.295 "></polygon><polygon xmlns="http://www.w3.org/2000/svg" points="80.342,39.69 51.24,56.634 51.353,65 80,65 80,65.087 "></polygon><path xmlns="http://www.w3.org/2000/svg" d="M50,5.886c-27.614,0-50,22.34-50,49.954C0,58.985,0.294,62,0.849,65H16c0,0,0,0.088,0,0.087l0.249-27.798  c0-0.029,0.089-0.059,0.091-0.087c0.002-0.031,0.045-0.062,0.049-0.093c0.004-0.029,0.032-0.058,0.038-0.086  c0.006-0.03,0.021-0.062,0.029-0.091c0.008-0.028,0.024-0.055,0.033-0.083c0.01-0.028,0.021-0.058,0.032-0.086  c0.012-0.027,0.027-0.053,0.04-0.079c0.013-0.026,0.026-0.055,0.041-0.081c0.015-0.025,0.033-0.05,0.05-0.074s0.032-0.05,0.05-0.073  c0.019-0.024,0.041-0.047,0.061-0.07c0.019-0.021,0.036-0.044,0.057-0.064c0.023-0.023,0.049-0.044,0.074-0.065  c0.021-0.018,0.04-0.037,0.062-0.054c0.026-0.021,0.056-0.038,0.084-0.057c0.022-0.015,0.042,0.016,0.065,0.003l0.004,0.044h0h0  l31.991-18.639c0.427-0.248,0.954-0.272,1.382-0.025l32.203,18.581c0.053,0.03,0.104,0.059,0.152,0.096  c0.014,0.011,0.025,0.021,0.039,0.032c0.033,0.027,0.066,0.053,0.096,0.083c0.017,0.016,0.03,0.033,0.046,0.051  c0.024,0.027,0.05,0.054,0.072,0.083c0.016,0.021,0.028,0.043,0.043,0.064c0.02,0.028,0.039,0.055,0.056,0.084  c0.014,0.023,0.024,0.049,0.037,0.073c0.014,0.028,0.03,0.057,0.042,0.087c0.011,0.025,0.019,0.052,0.027,0.078  c0.01,0.03,0.022,0.06,0.031,0.092c0.007,0.026,0.011,0.054,0.016,0.081c0.007,0.031,0.015,0.062,0.02,0.096  c0.004,0.028-0.184,0.058-0.182,0.086C83.183,37.227,83,37.258,83,37.289c0,0.001,0,0.002,0,0.003s0,0.002,0,0.003L83.295,65h15.856  c0.555-3,0.849-6.015,0.849-9.16C100,28.226,77.614,5.886,50,5.886z"></path><polygon xmlns="http://www.w3.org/2000/svg" points="48.321,56.68 42.09,52.996 19.094,39.631 19.096,65 48,65 48,65.087 "></polygon><path xmlns="http://www.w3.org/2000/svg" d="M81.906,68.444c-0.677,0-1.226,0.598-1.229,1.275c0,0.677,0.545,1.28,1.223,1.28c0.003,0,0.003,0,0.006,0  c0.674,0,1.222-0.598,1.222-1.274C83.131,69.048,82.583,68.447,81.906,68.444z"></path><path xmlns="http://www.w3.org/2000/svg" d="M81.891,73.072c-0.321,0-0.64,0.129-0.866,0.358c-0.228,0.227-0.358,0.542-0.358,0.867c0,0.321,0.131,0.637,0.358,0.863  c0.227,0.229,0.545,0.361,0.866,0.361s0.638-0.132,0.867-0.361c0.227-0.227,0.358-0.542,0.358-0.863  c0-0.325-0.132-0.641-0.358-0.867C82.528,73.201,82.212,73.072,81.891,73.072z"></path><path xmlns="http://www.w3.org/2000/svg" d="M77.275,75.562c-0.586,0.34-0.784,1.09-0.444,1.676c0.229,0.389,0.64,0.609,1.062,0.609c0.208,0,0.42-0.056,0.612-0.169  c0.586-0.34,0.784-1.09,0.444-1.675C78.61,75.422,77.86,75.223,77.275,75.562z"></path><path xmlns="http://www.w3.org/2000/svg" d="M73.275,77.884c-0.586,0.34-0.785,1.091-0.441,1.676c0.227,0.392,0.637,0.609,1.06,0.609c0.208,0,0.42-0.052,0.612-0.165  c0.585-0.341,0.784-1.091,0.444-1.676S73.86,77.544,73.275,77.884z"></path><path xmlns="http://www.w3.org/2000/svg" d="M53.277,89.508c-0.585,0.34-0.784,1.087-0.444,1.672c0.23,0.392,0.641,0.613,1.063,0.613c0.208,0,0.419-0.056,0.612-0.169  c0.585-0.34,0.784-1.088,0.444-1.673C54.612,89.366,53.862,89.168,53.277,89.508z"></path><path xmlns="http://www.w3.org/2000/svg" d="M57.277,87.183c-0.585,0.34-0.784,1.091-0.444,1.676c0.23,0.389,0.641,0.609,1.063,0.609c0.208,0,0.42-0.056,0.612-0.166  c0.585-0.34,0.784-1.09,0.444-1.675S57.862,86.843,57.277,87.183z"></path><path xmlns="http://www.w3.org/2000/svg" d="M61.277,84.858c-0.585,0.34-0.784,1.09-0.443,1.675c0.227,0.393,0.64,0.609,1.06,0.609c0.211,0,0.423-0.052,0.615-0.165  c0.585-0.34,0.784-1.09,0.444-1.676C62.613,84.717,61.862,84.519,61.277,84.858z"></path><path xmlns="http://www.w3.org/2000/svg" d="M69.274,80.209c-0.581,0.34-0.78,1.09-0.44,1.675c0.227,0.393,0.637,0.609,1.06,0.609c0.208,0,0.42-0.052,0.615-0.165  c0.585-0.34,0.781-1.091,0.441-1.675C70.61,80.067,69.859,79.868,69.274,80.209z"></path><path xmlns="http://www.w3.org/2000/svg" d="M65.277,82.533c-0.585,0.34-0.783,1.091-0.443,1.676c0.227,0.392,0.637,0.609,1.06,0.609c0.208,0,0.419-0.052,0.615-0.166  c0.585-0.34,0.784-1.09,0.444-1.675S65.862,82.193,65.277,82.533z"></path><path xmlns="http://www.w3.org/2000/svg" d="M49.938,77.789c0.674,0,1.223,0.552,1.22,1.228C51.161,78.341,50.616,77.789,49.938,77.789z"></path><path xmlns="http://www.w3.org/2000/svg" d="M49.911,87.039c0.677,0.003,1.223,0.551,1.223,1.228C51.137,87.59,50.588,87.042,49.911,87.039z"></path><path xmlns="http://www.w3.org/2000/svg" d="M48.805,79.488c0.184,0.439,0.617,0.749,1.125,0.751C49.423,80.237,48.99,79.927,48.805,79.488z"></path><path xmlns="http://www.w3.org/2000/svg" d="M48.684,88.261c0.001-0.338,0.139-0.645,0.36-0.865C48.821,87.616,48.684,87.922,48.684,88.261z"></path><path xmlns="http://www.w3.org/2000/svg" d="M48.684,88.261c-0.004,0.677,0.545,1.229,1.222,1.229C49.229,89.486,48.68,88.938,48.684,88.261z"></path><path xmlns="http://www.w3.org/2000/svg" d="M48.735,69.759c-0.003,0.677,0.545,1.228,1.222,1.228C49.28,70.983,48.735,70.436,48.735,69.759z"></path><path xmlns="http://www.w3.org/2000/svg" d="M49.951,73.161c-0.593,0-1.088,0.417-1.203,0.976c-0.017,0.079-0.025,0.356-0.025,0.441C48.72,75.254,49.269,76,49.945,76  h0.003c0.674,0,1.222-0.739,1.225-1.413c0-0.085-0.008-0.265-0.024-0.345C51.035,73.684,50.543,73.164,49.951,73.161z"></path><path xmlns="http://www.w3.org/2000/svg" d="M49.924,82.414c-0.677-0.003-1.226,0.612-1.229,1.29c0,0.676,0.546,1.296,1.223,1.296h0.003c0.677,0,1.225-0.612,1.225-1.29  C51.148,83.032,50.601,82.417,49.924,82.414z"></path><path xmlns="http://www.w3.org/2000/svg" d="M49.938,77.789c-0.084,0-0.167,0.008-0.247,0.024c-0.559,0.111-0.981,0.605-0.983,1.194c0,0.171,0.034,0.212,0.097,0.36  C48.99,79.808,49.423,80,49.93,80c0.003,0,0.003,0,0.003,0c0.001,0,0.002,0,0.003,0c0.59,0,1.083-0.3,1.197-0.856  c0.017-0.08,0.025-0.103,0.025-0.187C51.161,78.281,50.612,77.789,49.938,77.789z"></path><path xmlns="http://www.w3.org/2000/svg" d="M49.963,68.536c-0.677-0.003-1.225,0.552-1.228,1.229c0,0.677,0.545,1.235,1.222,1.235h0.003  c0.678,0,1.223-0.552,1.226-1.229C51.188,69.094,50.641,68.539,49.963,68.536z"></path><path xmlns="http://www.w3.org/2000/svg" d="M49.911,87.039c-0.339-0.002-0.645,0.135-0.867,0.356c-0.222,0.221-0.359,0.783-0.36,1.121  C48.68,89.193,49.229,90,49.905,90c0,0,0,0,0.003,0c0.674,0,1.223-0.801,1.226-1.478C51.134,87.846,50.588,87.042,49.911,87.039z"></path><path xmlns="http://www.w3.org/2000/svg" d="M49.894,91.667c-0.322,0-0.638,0.129-0.864,0.358c-0.229,0.227-0.358,0.542-0.358,0.866c0,0.322,0.129,0.638,0.358,0.864  c0.227,0.229,0.542,0.358,0.864,0.358c0.324,0,0.64-0.129,0.866-0.358c0.229-0.227,0.361-0.542,0.361-0.864  c0-0.324-0.132-0.64-0.361-0.866C50.533,91.796,50.218,91.667,49.894,91.667z"></path><path xmlns="http://www.w3.org/2000/svg" d="M46.481,89.504c-0.585-0.336-1.335-0.138-1.672,0.451c-0.337,0.585-0.138,1.335,0.447,1.672  c0.193,0.113,0.404,0.166,0.613,0.166c0.422,0,0.836-0.222,1.062-0.613C47.268,90.592,47.069,89.845,46.481,89.504z"></path><path xmlns="http://www.w3.org/2000/svg" d="M26.355,77.884c-0.585-0.337-1.335-0.138-1.672,0.45c-0.34,0.586-0.138,1.336,0.447,1.673  c0.193,0.11,0.404,0.165,0.612,0.165c0.423,0,0.833-0.221,1.063-0.612C27.142,78.972,26.943,78.224,26.355,77.884z"></path><path xmlns="http://www.w3.org/2000/svg" d="M22.33,75.56c-0.588-0.337-1.335-0.138-1.672,0.45c-0.34,0.585-0.138,1.335,0.447,1.672  c0.193,0.113,0.404,0.166,0.613,0.166c0.422,0,0.833-0.221,1.06-0.612C23.117,76.646,22.915,75.899,22.33,75.56z"></path><path xmlns="http://www.w3.org/2000/svg" d="M38.432,84.858c-0.588-0.34-1.335-0.139-1.675,0.446c-0.337,0.586-0.135,1.336,0.45,1.673  c0.193,0.113,0.404,0.165,0.609,0.165c0.426,0,0.836-0.22,1.063-0.612C39.219,85.945,39.017,85.195,38.432,84.858z"></path><path xmlns="http://www.w3.org/2000/svg" d="M34.407,82.533c-0.588-0.34-1.335-0.138-1.675,0.447c-0.337,0.588-0.138,1.336,0.45,1.676  c0.193,0.11,0.401,0.162,0.609,0.162c0.426,0,0.836-0.218,1.063-0.612C35.194,83.62,34.992,82.87,34.407,82.533z"></path><path xmlns="http://www.w3.org/2000/svg" d="M42.457,87.18c-0.585-0.337-1.335-0.138-1.672,0.45c-0.34,0.585-0.138,1.336,0.447,1.672  c0.193,0.113,0.404,0.166,0.612,0.166c0.423,0,0.833-0.221,1.063-0.613C43.244,88.267,43.044,87.52,42.457,87.18z"></path><path xmlns="http://www.w3.org/2000/svg" d="M30.379,80.209c-0.585-0.338-1.335-0.139-1.672,0.447c-0.337,0.588-0.138,1.335,0.447,1.675  c0.193,0.11,0.404,0.165,0.613,0.165c0.422,0,0.836-0.22,1.062-0.612C31.167,81.296,30.967,80.546,30.379,80.209z"></path><path xmlns="http://www.w3.org/2000/svg" d="M17.693,73.072c-0.325,0-0.64,0.132-0.867,0.358c-0.229,0.229-0.358,0.545-0.358,0.867c0,0.321,0.129,0.637,0.358,0.866  c0.227,0.227,0.542,0.358,0.867,0.358c0.322,0,0.637-0.132,0.867-0.358c0.227-0.229,0.358-0.545,0.358-0.866  c0-0.322-0.132-0.638-0.358-0.867C18.33,73.204,18.015,73.072,17.693,73.072z"></path><path xmlns="http://www.w3.org/2000/svg" d="M17.708,68.447c-0.677-0.003-1.229,0.597-1.229,1.273C16.477,70.397,17.025,71,17.702,71c0,0,0,0,0.003,0  c0.674,0,1.222-0.6,1.225-1.273C18.934,69.05,18.385,68.447,17.708,68.447z"></path><path xmlns="http://www.w3.org/2000/svg" d="M97.318,67H2.37c-0.254,0-0.459,0.246-0.459,0.5S2.116,68,2.37,68h94.949c0.254,0,0.46-0.246,0.46-0.5S97.572,67,97.318,67z  "></path></g></g><g id="SvgjsG9801" featureKey="text1" fill="url(#SvgjsLinearGradient9802)" transform="matrix(1.8551531244919495,0,0,1.8551531244919495,87.03175429312813,14.271866701838386)"><path d="M10.08 22 l-8.48 0 l0 -14 l2.7 0 l0 11.5 l5.78 0 l0 2.5 z M18.36 17.66 l0 -1.94 c0 -1.28 -0.86 -2.28 -2.28 -2.28 c-1.52 0 -2.4 1.1 -2.4 3.26 c0 2.14 0.88 3.26 2.4 3.26 c1.42 0 2.28 -1.02 2.28 -2.3 z M20.96 22 l-2.44 0 l0 -1.02 l-0.04 0 c-0.06 0.1 -0.16 0.22 -0.3 0.36 c-0.12 0.14 -0.42 0.34 -0.92 0.6 c-0.48 0.24 -1 0.36 -1.58 0.36 c-1.4 0 -2.52 -0.5 -3.36 -1.52 c-0.82 -1.02 -1.24 -2.38 -1.24 -4.08 c0 -1.72 0.46 -3.08 1.36 -4.08 c0.9 -1.02 1.98 -1.52 3.2 -1.52 c1.12 0 2.1 0.56 2.42 0.98 l0.26 0.34 l0.04 0 l0 -5.02 l2.6 0 l0 14.6 z M31.979999999999997 22 l-2.18 0 l0 -1.02 l-0.04 0 c0 0.02 -0.74 1.32 -2.88 1.32 c-2.56 0 -3.82 -1.38 -3.82 -3.14 c0 -1.84 0.98 -2.66 3.6 -3.3 c1.22 -0.3 1.98 -0.52 2.28 -0.7 s0.46 -0.42 0.46 -0.74 c0 -0.64 -0.6 -1.12 -1.8 -1.12 c-1.42 0 -1.9 0.68 -2.24 1.74 l-2.16 -0.9 c0.5 -1.78 1.98 -3.04 4.36 -3.04 c1.3 0 2.36 0.34 3.18 1.02 s1.24 1.74 1.24 3.16 l0 6.72 z M27.18 17.66 c-1.34 0.32 -1.62 0.76 -1.62 1.32 c0 0.72 0.52 1.08 1.56 1.08 c1.58 0 2.36 -0.68 2.36 -1.56 l0 -1.84 l-0.04 0 c-0.06 0.1 -0.12 0.2 -0.18 0.26 c-0.1 0.1 -0.8 0.42 -2.08 0.74 z M37.18 15.6 l0 2.18 c0 1.22 0.9 2.18 2.28 2.18 c1.52 0 2.6 -1.16 2.6 -3.26 s-1.06 -3.26 -2.6 -3.26 c-1.38 0 -2.28 0.96 -2.28 2.16 z M37.18 26.5 l-2.6 0 l0 -15.1 l2.48 0 l0 1.02 l0.04 0 c0 -0.02 0.8 -1.3 2.86 -1.32 c1.26 0 2.34 0.5 3.28 1.52 c0.94 1 1.42 2.36 1.42 4.08 c0 1.74 -0.46 3.1 -1.36 4.1 s-2 1.5 -3.3 1.5 c-1.6 0 -2.46 -0.84 -2.7 -1.18 l-0.08 -0.14 l-0.04 0 l0 5.52 z M49.66 22 l-2.7 0 l0 -14 l5.68 0 c1.44 0 2.6 0.4 3.48 1.22 c0.9 0.8 1.34 1.88 1.34 3.24 c0 2.02 -1.12 3.5 -2.96 4.08 l2.98 5.46 l-2.92 0 l-2.82 -5.2 l-2.08 0 l0 5.2 z M49.66 10.44 l0 4.02 l2.76 0 c1.54 0 2.3 -0.66 2.3 -2 s-0.76 -2.02 -2.3 -2.02 l-2.76 0 z M66.36 18.34 l1.82 1.6 c-1.08 1.58 -2.54 2.36 -4.38 2.36 c-1.48 0 -2.68 -0.5 -3.62 -1.52 s-1.4 -2.38 -1.4 -4.08 s0.46 -3.04 1.38 -4.06 c0.94 -1.02 2.1 -1.54 3.52 -1.54 s2.58 0.52 3.48 1.54 c0.92 1.02 1.38 2.36 1.38 4.06 l0 0.78 l-7.12 0 c0.08 1.62 0.92 2.52 2.34 2.52 c1.2 0 1.9 -0.64 2.6 -1.66 z M61.42 15.54 l4.6 0 c-0.14 -1.36 -0.96 -2.16 -2.34 -2.16 c-1.28 0 -2.16 0.94 -2.26 2.16 z M77 17.72 l2.46 0.64 c-0.48 2.54 -2.16 3.94 -4.58 3.94 c-1.44 0 -2.62 -0.5 -3.56 -1.48 c-0.92 -0.98 -1.38 -2.36 -1.38 -4.12 c0 -1.74 0.48 -3.12 1.42 -4.1 c0.96 -1 2.14 -1.5 3.54 -1.5 c2.38 0 4.08 1.5 4.46 3.82 l-2.42 0.46 c-0.26 -1.3 -0.94 -1.94 -2.04 -1.94 c-1.46 0 -2.4 1.12 -2.4 3.26 s0.9 3.26 2.4 3.26 c1.18 0 1.88 -0.74 2.1 -2.24 z M83.96000000000001 19.12 c0.42 0.56 1.02 0.84 1.76 0.84 s1.34 -0.28 1.76 -0.84 c0.42 -0.58 0.64 -1.38 0.64 -2.42 s-0.22 -1.84 -0.66 -2.4 c-0.42 -0.58 -1 -0.86 -1.74 -0.86 s-1.32 0.28 -1.76 0.84 c-0.42 0.56 -0.64 1.36 -0.64 2.42 s0.22 1.86 0.64 2.42 z M80.76 16.7 c0 -1.74 0.48 -3.1 1.44 -4.1 s2.14 -1.5 3.52 -1.5 s2.56 0.5 3.52 1.5 s1.44 2.36 1.44 4.1 c0 1.76 -0.46 3.14 -1.4 4.12 s-2.12 1.48 -3.56 1.48 s-2.62 -0.5 -3.56 -1.48 s-1.4 -2.36 -1.4 -4.12 z M95.38 22 l-2.6 0 l0 -10.6 l2.46 0 l0 1.12 l0.04 0 c0.4 -0.8 1.24 -1.32 2.18 -1.32 c0.34 0 0.66 0.06 0.96 0.2 l-0.4 2.52 c-0.3 -0.1 -0.56 -0.16 -0.82 -0.16 c-1.22 0 -1.82 0.8 -1.82 2.42 l0 5.82 z M106.7 17.66 l0 -1.94 c0 -1.28 -0.86 -2.28 -2.28 -2.28 c-1.52 0 -2.4 1.1 -2.4 3.26 c0 2.14 0.88 3.26 2.4 3.26 c1.42 0 2.28 -1.02 2.28 -2.3 z M109.3 22 l-2.44 0 l0 -1.02 l-0.04 0 c-0.06 0.1 -0.16 0.22 -0.3 0.36 c-0.12 0.14 -0.42 0.34 -0.92 0.6 c-0.48 0.24 -1 0.36 -1.58 0.36 c-1.4 0 -2.52 -0.5 -3.36 -1.52 c-0.82 -1.02 -1.24 -2.38 -1.24 -4.08 c0 -1.72 0.46 -3.08 1.36 -4.08 c0.9 -1.02 1.98 -1.52 3.2 -1.52 c1.12 0 2.1 0.56 2.42 0.98 l0.26 0.34 l0.04 0 l0 -5.02 l2.6 0 l0 14.6 z"></path></g>
			</g>
		</svg>
	