<?xml version="1.0" standalone="no"?>
<!DOCTYPE svg PUBLIC "-//W3C//DTD SVG 20010904//EN"
 "http://www.w3.org/TR/2001/REC-SVG-20010904/DTD/svg10.dtd">
<svg version="1.0" xmlns="http://www.w3.org/2000/svg"
 width="700.000000pt" height="700.000000pt" viewBox="0 0 700.000000 700.000000"
 preserveAspectRatio="xMidYMid meet">
<metadata>
Created by potrace 1.11, written by Peter Selinger 2001-2013
</metadata>
<g transform="translate(0.000000,700.000000) scale(0.100000,-0.100000)"
fill="#000000" stroke="none">
<path d="M3298 6995 c-2 -1 -41 -5 -88 -9 -101 -7 -239 -24 -295 -36 -22 -5
-60 -12 -85 -15 -24 -4 -47 -8 -51 -10 -3 -2 -21 -7 -40 -10 -102 -18 -427
-117 -528 -161 -20 -9 -45 -20 -56 -24 -302 -122 -631 -322 -905 -551 -528
-441 -922 -1048 -1115 -1718 -19 -68 -37 -135 -40 -150 -3 -14 -7 -37 -10 -51
-18 -79 -44 -223 -50 -275 -4 -33 -9 -69 -11 -80 -18 -98 -25 -570 -10 -715
46 -459 159 -856 357 -1252 37 -76 80 -155 94 -177 14 -23 25 -43 25 -46 0
-14 207 -310 287 -410 120 -151 381 -410 537 -535 110 -87 387 -280 402 -280
2 0 22 -11 43 -24 122 -78 415 -210 620 -280 192 -66 491 -137 643 -152 35 -3
66 -8 69 -9 15 -10 228 -20 414 -20 207 0 338 7 465 25 120 17 144 21 260 46
856 182 1631 695 2136 1413 66 95 75 108 161 255 252 429 419 952 460 1441 10
118 10 504 0 625 -52 631 -295 1266 -681 1780 -569 760 -1425 1263 -2346 1380
-47 6 -98 13 -115 16 -32 6 -541 14 -547 9z m337 -2870 c232 -49 425 -236 485
-471 56 -217 -8 -442 -170 -605 -283 -285 -754 -241 -980 92 -75 109 -101 193
-105 339 -6 184 42 319 158 446 105 114 212 174 372 208 46 9 175 5 240 -9z"/>
</g>
</svg>
