<?xml version="1.0" standalone="no"?>
<!DOCTYPE svg PUBLIC "-//W3C//DTD SVG 20010904//EN"
 "http://www.w3.org/TR/2001/REC-SVG-20010904/DTD/svg10.dtd">
<svg version="1.0" xmlns="http://www.w3.org/2000/svg"
 width="724.000000pt" height="724.000000pt" viewBox="0 0 724.000000 724.000000"
 preserveAspectRatio="xMidYMid meet">
<metadata>
Created by potrace 1.11, written by Peter Selinger 2001-2013
</metadata>
<g transform="translate(0.000000,724.000000) scale(0.100000,-0.100000)"
fill="#000000" stroke="none">
<path d="M3368 6805 c-2 -2 -35 -6 -73 -10 -39 -3 -79 -7 -90 -9 -11 -2 -49
-7 -85 -11 -36 -4 -74 -9 -85 -11 -11 -3 -36 -7 -55 -10 -19 -3 -37 -7 -40 -9
-3 -2 -24 -6 -46 -9 -57 -9 -71 -12 -144 -31 -36 -9 -69 -18 -75 -19 -5 -2
-30 -9 -55 -16 -25 -7 -49 -14 -55 -16 -19 -4 -190 -62 -220 -75 -16 -7 -35
-13 -42 -15 -7 -1 -65 -26 -130 -55 -65 -30 -120 -54 -123 -54 -3 -1 -14 -6
-25 -12 -11 -6 -54 -29 -96 -51 -42 -22 -118 -65 -169 -96 -51 -31 -96 -56
-101 -56 -4 0 -9 -3 -11 -7 -1 -5 -30 -26 -63 -48 -247 -164 -548 -437 -742
-672 -28 -34 -56 -68 -62 -75 -6 -7 -25 -31 -41 -53 -16 -22 -33 -44 -38 -50
-26 -35 -82 -116 -82 -120 0 -3 -8 -15 -18 -26 -11 -10 -25 -32 -33 -47 -8
-15 -16 -29 -19 -32 -29 -29 -260 -470 -260 -496 0 -3 -10 -26 -21 -52 -12
-26 -21 -48 -20 -50 1 -1 -6 -19 -15 -40 -21 -49 -104 -302 -104 -319 0 -7 -7
-32 -14 -55 -8 -24 -17 -54 -20 -68 -2 -14 -12 -59 -21 -100 -9 -41 -18 -95
-21 -120 -3 -24 -7 -47 -9 -50 -5 -8 -20 -125 -32 -250 -10 -99 -9 -544 0
-640 8 -72 24 -198 31 -237 2 -10 7 -37 11 -60 l7 -43 549 0 550 0 -1 43 c-1
23 1 344 5 712 4 369 8 801 9 961 2 267 4 294 22 324 10 18 26 37 34 41 8 5
45 27 83 49 37 22 70 40 73 40 3 0 26 14 51 30 24 17 46 30 48 30 2 0 37 19
77 43 40 24 105 62 143 84 39 23 138 81 220 129 83 48 163 94 180 103 16 9 32
18 35 21 3 3 19 12 35 20 17 8 32 17 35 20 4 5 602 354 740 433 19 10 99 57
178 103 79 46 147 84 152 84 6 0 10 3 10 8 0 4 21 18 48 32 26 13 65 36 87 49
39 24 83 50 135 78 44 23 73 15 190 -54 50 -29 348 -202 390 -226 19 -11 55
-31 80 -45 25 -14 125 -72 222 -129 98 -57 182 -103 188 -103 5 0 10 -3 10 -7
0 -5 10 -13 23 -19 38 -19 104 -57 332 -189 121 -71 234 -136 250 -145 17 -9
75 -43 130 -75 55 -32 116 -67 135 -78 74 -41 206 -118 220 -128 8 -5 23 -12
33 -15 9 -4 17 -10 17 -15 0 -5 5 -9 10 -9 6 0 58 -28 116 -61 70 -42 110 -71
120 -91 13 -25 13 -29 0 -34 -13 -5 -15 -65 -10 -482 9 -902 12 -1207 13
-1369 l1 -163 575 0 c316 0 575 3 576 8 0 4 2 16 5 27 2 11 6 37 9 59 3 21 8
52 11 70 20 114 29 263 29 496 0 246 -7 372 -30 518 -3 17 -8 49 -11 70 -11
70 -53 267 -74 342 -11 41 -23 85 -25 96 -6 28 -83 253 -95 279 -5 11 -25 58
-44 105 -36 89 -99 224 -116 250 -6 8 -15 26 -20 39 -18 42 -149 260 -178 296
-4 6 -18 27 -31 48 -13 21 -28 43 -35 50 -6 6 -19 25 -29 40 -10 16 -25 36
-32 45 -8 9 -45 55 -82 103 -100 125 -250 283 -398 418 -123 113 -456 361
-483 361 -6 0 -12 4 -14 8 -8 20 -342 198 -480 256 -21 9 -53 22 -70 30 -195
84 -589 194 -793 221 -16 2 -46 7 -65 10 -55 8 -120 16 -180 21 -65 6 -577 13
-582 9z"/>
<path d="M3600 5762 c-8 -3 -31 -15 -50 -27 -19 -12 -55 -33 -80 -47 -48 -27
-597 -346 -745 -433 -49 -29 -108 -64 -131 -76 -64 -37 -260 -151 -312 -181
-26 -16 -55 -31 -64 -34 -10 -4 -18 -10 -18 -15 0 -5 -6 -9 -13 -9 -7 0 -19
-6 -25 -12 -7 -7 -16 -13 -20 -13 -4 0 -18 -8 -32 -16 -61 -39 -203 -119 -211
-119 -5 0 -9 -4 -9 -9 0 -5 -6 -11 -13 -13 -16 -4 -388 -220 -385 -223 13 -12
250 -145 258 -145 5 0 10 -4 10 -10 0 -5 5 -10 10 -10 6 0 43 -20 83 -44 39
-23 196 -114 347 -201 151 -87 312 -180 358 -207 45 -26 87 -48 92 -48 6 0 10
-4 10 -10 0 -5 4 -10 9 -10 5 0 86 -45 181 -100 94 -55 176 -100 181 -100 5 0
9 -4 9 -10 0 -5 5 -10 11 -10 6 0 63 -31 127 -69 110 -65 136 -80 230 -132 20
-12 42 -25 47 -29 6 -4 35 -21 65 -37 30 -16 65 -36 78 -44 20 -12 26 -12 55
5 77 46 215 124 247 142 19 10 37 22 38 27 2 4 8 7 13 7 6 0 34 16 64 35 30
19 55 31 55 27 0 -4 4 -2 8 3 6 10 188 119 317 191 28 15 94 54 148 86 55 32
103 58 108 58 5 0 9 5 9 10 0 6 4 10 10 10 5 0 42 19 82 43 40 24 80 46 88 50
8 4 24 13 35 20 11 7 49 29 85 50 36 21 72 42 80 47 100 61 255 150 279 160
17 7 31 16 31 20 0 5 12 13 28 19 15 6 45 22 67 35 22 14 51 31 65 39 14 7 41
23 60 34 170 98 178 105 143 116 -10 4 -38 18 -63 33 -89 52 -227 132 -325
189 -55 32 -113 66 -130 75 -16 10 -118 68 -225 130 -107 62 -210 121 -227
131 -56 32 -95 55 -193 111 -52 30 -140 81 -195 113 -55 32 -118 69 -141 81
-22 12 -58 33 -80 46 -21 14 -64 38 -94 55 -30 17 -122 70 -205 118 -82 48
-163 95 -180 103 -16 9 -32 18 -35 22 -3 4 -12 5 -20 2z"/>
<path d="M1383 3445 l0 -915 1047 0 1047 0 1 53 c1 28 3 108 6 177 3 69 8 180
10 248 l5 123 -32 19 c-18 10 -37 22 -42 27 -6 4 -26 17 -45 27 -19 10 -107
62 -195 114 -88 53 -185 109 -215 125 -30 16 -62 36 -71 43 -8 8 -18 14 -22
14 -3 0 -47 25 -97 55 -50 30 -92 55 -94 55 -2 0 -51 28 -108 61 -100 60 -130
78 -213 124 -22 13 -98 57 -169 99 -70 42 -132 76 -137 76 -5 0 -9 5 -9 11 0
5 -4 8 -9 5 -5 -3 -14 1 -21 9 -7 8 -19 15 -26 15 -8 0 -14 3 -14 8 0 4 -10
12 -23 18 -33 15 -111 58 -117 64 -3 3 -16 11 -30 19 -14 8 -50 29 -80 46 -30
18 -71 41 -90 51 -19 10 -36 22 -38 27 -2 4 -8 7 -13 7 -5 0 -26 11 -47 23
-45 29 -149 87 -155 87 -2 0 -4 -412 -4 -915z"/>
<path d="M5690 4289 c-63 -37 -119 -71 -125 -76 -5 -5 -14 -11 -20 -12 -29
-10 -55 -25 -55 -33 0 -4 -5 -8 -10 -8 -6 0 -79 -40 -163 -89 -84 -49 -166
-97 -184 -107 -17 -11 -91 -54 -165 -96 -73 -43 -144 -85 -158 -93 -95 -56
-283 -165 -286 -165 -3 0 -33 -17 -67 -38 -34 -21 -105 -63 -157 -94 -52 -30
-121 -70 -154 -89 -32 -19 -75 -43 -95 -55 -20 -12 -65 -38 -101 -59 -36 -20
-79 -46 -97 -56 -17 -10 -50 -29 -72 -43 -22 -15 -45 -26 -51 -26 -5 0 -12
-10 -15 -22 -4 -18 -1 -440 4 -576 l1 -22 1037 2 1037 3 2 240 c4 247 12 881
18 1316 2 136 1 251 -3 256 -3 5 -58 -21 -121 -58z"/>
<path d="M150 2376 c-14 -14 -12 -42 3 -54 12 -10 6869 -15 6908 -5 20 5 23
43 5 60 -11 12 -6905 10 -6916 -1z"/>
<path d="M1222 2250 c-34 -34 -36 -76 -5 -118 26 -35 46 -42 90 -30 59 16 82
95 40 143 -34 40 -89 42 -125 5z"/>
<path d="M5900 2273 c-79 -31 -68 -160 15 -176 81 -15 137 102 76 157 -20 18
-69 28 -91 19z"/>
<path d="M3555 2244 c-16 -17 -25 -39 -25 -59 0 -30 36 -84 57 -86 4 0 19 -2
32 -3 39 -4 84 43 84 88 0 80 -94 118 -148 60z"/>
<path d="M1255 1939 c-34 -9 -52 -33 -60 -79 -4 -25 0 -37 24 -61 59 -58 151
-20 151 64 0 50 -61 90 -115 76z"/>
<path d="M5907 1939 c-43 -12 -68 -48 -62 -89 12 -81 98 -109 149 -49 56 66
-4 161 -87 138z"/>
<path d="M3574 1929 c-77 -39 -39 -208 43 -194 59 10 93 56 86 115 -8 63 -77
105 -129 79z"/>
<path d="M1522 1757 c-17 -12 -32 -31 -33 -42 -1 -11 -3 -27 -3 -35 -2 -20 23
-59 46 -71 11 -6 36 -8 57 -4 65 11 93 89 49 139 -32 36 -76 41 -116 13z"/>
<path d="M5605 1768 c-34 -20 -46 -36 -52 -71 -4 -27 1 -39 25 -65 36 -39 80
-43 116 -11 51 44 42 114 -17 142 -41 20 -46 20 -72 5z"/>
<path d="M1817 1594 c-54 -29 -52 -121 4 -149 40 -21 63 -19 98 11 82 68 -7
188 -102 138z"/>
<path d="M3576 1593 c-52 -27 -64 -101 -21 -129 53 -35 115 -22 141 27 34 66
-51 138 -120 102z"/>
<path d="M5304 1591 c-52 -32 -56 -99 -7 -138 40 -33 79 -30 114 8 25 27 29
38 24 68 -6 40 -47 81 -80 81 -11 0 -34 -9 -51 -19z"/>
<path d="M2115 1428 c-32 -18 -44 -40 -45 -79 0 -72 82 -111 138 -64 38 32 43
59 20 106 -22 47 -69 62 -113 37z"/>
<path d="M5005 1416 c-35 -33 -40 -84 -10 -122 17 -22 30 -27 64 -27 51 0 79
24 87 74 13 76 -84 128 -141 75z"/>
<path d="M2392 1252 c-27 -21 -39 -80 -23 -111 34 -62 125 -60 155 4 15 30 15
38 2 69 -23 56 -87 74 -134 38z"/>
<path d="M3583 1260 c-35 -14 -63 -67 -53 -99 15 -50 22 -59 50 -71 34 -14
100 3 100 26 0 8 5 14 10 14 6 0 10 16 10 36 0 37 -27 94 -45 94 -5 0 -19 2
-30 5 -11 2 -30 0 -42 -5z"/>
<path d="M4719 1251 c-68 -53 -22 -168 61 -154 75 12 103 85 56 146 -22 29
-86 33 -117 8z"/>
<path d="M2704 1096 c-32 -18 -54 -48 -54 -73 0 -85 90 -126 150 -68 66 63
-17 184 -96 141z"/>
<path d="M4421 1077 c-29 -32 -34 -63 -14 -101 20 -40 16 -37 63 -46 36 -7 43
-4 70 23 38 39 40 83 5 121 -32 35 -92 36 -124 3z"/>
<path d="M3004 928 c-42 -11 -72 -66 -58 -105 13 -37 67 -73 97 -65 33 10 51
24 65 52 17 33 11 67 -16 95 -27 28 -48 34 -88 23z"/>
<path d="M3593 928 c-71 -19 -90 -123 -34 -179 38 -38 71 -37 110 2 71 70 14
202 -76 177z"/>
<path d="M4164 928 c-55 -18 -78 -93 -40 -132 35 -37 69 -47 102 -30 65 34 71
118 11 155 -18 10 -34 18 -37 18 -3 -1 -19 -6 -36 -11z"/>
<path d="M3272 751 c-48 -37 -50 -106 -5 -141 69 -54 165 16 138 99 -15 47
-94 72 -133 42z"/>
<path d="M3864 758 c-26 -12 -44 -43 -49 -83 -2 -21 5 -37 25 -57 57 -57 150
-18 150 63 0 60 -70 102 -126 77z"/>
<path d="M3578 593 c-9 -2 -24 -15 -33 -29 -61 -93 48 -193 126 -115 67 68 2
170 -93 144z"/>
</g>
</svg>
